<svg xmlns="http://www.w3.org/2000/svg" xmlns:xlink="http://www.w3.org/1999/xlink" width="138" zoomAndPan="magnify" viewBox="0 0 103.5 32.999998" height="44" preserveAspectRatio="xMidYMid meet" version="1.0"><defs><g/><clipPath id="c7df340818"><path d="M 0.0898438 24.875 L 102.910156 24.875 L 102.910156 32.910156 L 0.0898438 32.910156 Z M 0.0898438 24.875 " clip-rule="nonzero"/></clipPath></defs><path fill="#070000" d="M 6.265625 29.328125 L 96.0625 29.328125 L 96.0625 30.332031 Z M 6.265625 29.328125 " fill-opacity="1" fill-rule="nonzero"/><g clip-path="url(#c7df340818)"><path fill="#ffcb0f" d="M 102.910156 24.875 L 96.683594 24.875 L 95.722656 26.800781 L 0.0898438 26.800781 L 95.109375 26.800781 L 96.179688 27.605469 L 97.136719 25.949219 L 101.21875 25.949219 L 97.8125 32.109375 L 12.710938 32.109375 L 98.269531 32.910156 L 102.910156 24.875 " fill-opacity="1" fill-rule="nonzero"/></g><g fill="#000000" fill-opacity="1"><g transform="translate(5.428176, 21.498509)"><g><path d="M 0.65625 -17.625 L 0.65625 0 L 5.484375 0 L 5.484375 -13.640625 L 10.5 -13.640625 C 11.984375 -13.640625 13.421875 -12.515625 13.421875 -10.75 C 13.421875 -9.15625 12.046875 -7.890625 10.671875 -7.890625 L 6.546875 -7.890625 L 6.546875 -3.90625 L 10.015625 -3.90625 C 11.921875 -3.90625 12.890625 -2.8125 12.890625 -0.6875 L 12.890625 3.984375 L 17.703125 3.984375 L 17.703125 -1.046875 C 17.703125 -2.9375 17.03125 -4.625 14.859375 -5.609375 C 17.109375 -6.21875 18.5 -8.84375 18.5 -11.1875 C 18.5 -14.375 15.765625 -17.625 12.3125 -17.625 Z M 0.65625 -17.625 "/></g></g></g><g fill="#000000" fill-opacity="1"><g transform="translate(24.231955, 21.498509)"><g><path d="M 15.828125 -3.984375 L 8.359375 -3.984375 C 6.71875 -3.984375 5.390625 -5.21875 5.390625 -6.921875 C 5.390625 -8.515625 6.59375 -9.65625 8.359375 -9.65625 L 10.75 -9.65625 L 7.46875 -5.125 L 12.734375 -5.125 L 15.828125 -9.65625 L 15.828125 -13.640625 L 8 -13.640625 C 3.828125 -13.640625 0.3125 -10.375 0.3125 -6.875 C 0.3125 -2.59375 4 0 7.984375 0 L 15.828125 0 Z M 15.828125 -3.984375 "/></g></g></g><g fill="#000000" fill-opacity="1"><g transform="translate(40.583084, 21.498509)"><g><path d="M 0.53125 0 L 5.171875 0 L 5.171875 -9.65625 L 8.25 -9.65625 C 8.90625 -9.65625 9.640625 -8.9375 9.640625 -8.296875 L 9.640625 0 L 14.28125 0 L 14.28125 -8.890625 C 14.28125 -11.234375 11.96875 -13.640625 9.640625 -13.640625 L 0.53125 -13.640625 Z M 0.53125 0 "/></g></g></g><g fill="#000000" fill-opacity="1"><g transform="translate(55.343271, 21.498509)"><g><path d="M 5.171875 -17.625 L 0.53125 -17.625 L 0.53125 -4.265625 C 0.53125 -1.765625 3.046875 0 5.171875 0 L 9.75 0 L 9.75 -3.984375 L 6.765625 -3.984375 C 5.765625 -3.984375 5.171875 -4.40625 5.171875 -5.4375 L 5.171875 -9.65625 L 9.75 -9.65625 L 9.75 -13.640625 L 5.171875 -13.640625 Z M 5.171875 -17.625 "/></g></g></g><g fill="#000000" fill-opacity="1"><g transform="translate(65.617953, 21.498509)"><g/></g></g><g fill="#000000" fill-opacity="1"><g transform="translate(72.246793, 21.498509)"><g><path d="M 0.65625 -17.625 L 0.65625 0 L 5.484375 0 L 5.484375 -17.625 Z M 0.65625 -17.625 "/></g></g></g><g fill="#000000" fill-opacity="1"><g transform="translate(78.389501, 21.498509)"><g><path d="M 5.171875 -17.625 L 0.53125 -17.625 L 0.53125 -4.265625 C 0.53125 -1.765625 3.046875 0 5.171875 0 L 9.75 0 L 9.75 -3.984375 L 6.765625 -3.984375 C 5.765625 -3.984375 5.171875 -4.40625 5.171875 -5.4375 L 5.171875 -9.65625 L 9.75 -9.65625 L 9.75 -13.640625 L 5.171875 -13.640625 Z M 5.171875 -17.625 "/></g></g></g></svg>